<?xml version="1.0" encoding="UTF-8" standalone="no"?>
<!DOCTYPE svg PUBLIC "-//W3C//DTD SVG 1.1//EN" "http://www.w3.org/Graphics/SVG/1.1/DTD/svg11.dtd">

<!-- Created with Vectornator (http://vectornator.io/) -->
<svg height="100%" stroke-miterlimit="10"
    style="fill-rule:nonzero;clip-rule:evenodd;stroke-linecap:round;stroke-linejoin:round;" version="1.1"
    viewBox="0 0 512 512" width="100%" xmlns="http://www.w3.org/2000/svg">

    <clipPath id="ArtboardFrame">
        <rect height="512" width="512" x="0" y="0" />
    </clipPath>
    <g clip-path="url(#ArtboardFrame)">
        <path
            d="M141.511 94.5128C109.359 94.5128 83.1749 120.696 83.1749 152.849L83.1749 456.05C83.1749 488.202 109.359 514.347 141.511 514.347L456.387 514.347C488.54 514.347 514.684 488.202 514.684 456.05L514.684 152.849C514.684 120.696 488.54 94.5128 456.387 94.5128L141.511 94.5128ZM444.712 141.174C457.598 141.174 468.023 151.598 468.023 164.485C468.023 177.372 457.599 187.835 444.712 187.835C431.825 187.835 421.401 177.372 421.401 164.485C421.401 151.598 431.825 141.174 444.712 141.174ZM250.936 258.944C261.22 258.944 269.49 261.701 275.775 267.211C282.06 272.72 285.687 280.446 286.667 290.404L268.292 290.404C267.843 284.65 266.267 280.498 263.512 277.906C260.758 275.315 256.568 274.028 250.936 274.028C244.815 274.028 240.225 276.222 237.185 280.609C234.144 284.997 232.565 291.798 232.483 301.021L232.483 307.76C232.483 317.391 233.953 324.429 236.871 328.877C239.789 333.325 244.377 335.537 250.662 335.537C256.335 335.537 260.599 334.25 263.395 331.659C266.19 329.067 267.766 325.059 268.175 319.631L286.549 319.631C285.855 329.222 282.319 336.767 275.932 342.276C269.545 347.785 261.109 350.543 250.662 350.543C239.235 350.543 230.257 346.678 223.707 338.985C217.157 331.292 213.873 320.756 213.873 307.329L213.873 301.883C213.873 293.313 215.398 285.729 218.418 279.199C221.438 272.669 225.775 267.683 231.386 264.194C236.998 260.704 243.509 258.944 250.936 258.944ZM330.507 258.944C336.874 258.944 342.532 260.125 347.51 262.431C352.489 264.737 356.353 267.983 359.107 272.186C361.862 276.39 363.26 281.14 363.26 286.486L344.886 286.486C344.886 282.405 343.617 279.231 341.046 276.966C338.475 274.701 334.846 273.597 330.194 273.597C325.705 273.597 322.223 274.52 319.733 276.417C317.244 278.315 316.011 280.838 316.011 283.94C316.011 286.837 317.442 289.268 320.36 291.227C323.278 293.186 327.577 294.998 333.25 296.712C343.697 299.854 351.316 303.774 356.091 308.426C360.865 313.078 363.26 318.883 363.26 325.821C363.26 333.534 360.32 339.574 354.484 343.961C348.648 348.348 340.814 350.543 330.938 350.543C324.082 350.543 317.843 349.291 312.211 346.782C306.579 344.272 302.28 340.805 299.321 336.438C296.362 332.072 294.894 327.031 294.894 321.277L313.308 321.277C313.308 331.112 319.185 336.008 330.938 336.008C335.305 336.008 338.715 335.119 341.164 333.343C343.612 331.568 344.846 329.122 344.846 325.939C344.846 322.47 343.612 319.803 341.164 317.946C338.715 316.089 334.288 314.131 327.921 312.07C321.555 310.009 316.512 307.958 312.799 305.958C302.678 300.489 297.637 293.125 297.637 283.861C297.637 279.046 298.997 274.747 301.711 270.972C304.425 267.197 308.305 264.279 313.386 262.157C318.467 260.034 324.181 258.944 330.507 258.944ZM407.571 258.944C413.937 258.944 419.634 260.125 424.613 262.431C429.592 264.737 433.455 267.983 436.21 272.186C438.965 276.39 440.324 281.14 440.324 286.486L421.949 286.486C421.949 282.405 420.681 279.231 418.11 276.966C415.539 274.701 411.91 273.597 407.257 273.597C402.768 273.597 399.286 274.52 396.797 276.417C394.307 278.315 393.075 280.838 393.075 283.94C393.075 286.837 394.545 289.268 397.463 291.227C400.381 293.186 404.641 294.998 410.313 296.712C420.761 299.854 428.379 303.774 433.154 308.426C437.929 313.078 440.324 318.883 440.324 325.821C440.324 333.534 437.423 339.574 431.587 343.961C425.751 348.348 417.878 350.543 408.002 350.543C401.146 350.543 394.906 349.291 389.275 346.782C383.643 344.272 379.344 340.805 376.385 336.438C373.426 332.072 371.958 327.031 371.958 321.277L390.372 321.277C390.372 331.112 396.248 336.008 408.002 336.008C412.368 336.008 415.779 335.119 418.227 333.343C420.676 331.568 421.91 329.122 421.91 325.939C421.91 322.47 420.676 319.803 418.227 317.946C415.779 316.089 411.391 314.131 405.024 312.07C398.658 310.009 393.615 307.958 389.901 305.958C379.78 300.489 374.7 293.125 374.7 283.861C374.7 279.046 376.061 274.747 378.775 270.972C381.489 267.197 385.369 264.279 390.45 262.157C395.531 260.034 401.245 258.944 407.571 258.944ZM182.492 260.198L200.866 260.198L200.866 321.903C200.866 327.576 199.615 332.562 197.105 336.909C194.595 341.255 191.02 344.61 186.449 346.977C181.878 349.344 176.728 350.543 170.973 350.543C161.546 350.543 154.22 348.129 148.955 343.334C143.691 338.539 141.041 331.775 141.041 323L159.533 323C159.533 327.367 160.439 330.596 162.276 332.677C164.112 334.759 167.015 335.772 170.973 335.772C174.483 335.772 177.276 334.576 179.357 332.168C181.439 329.76 182.492 326.352 182.492 321.903L182.492 260.198Z"
            fill="#0000bb" fill-rule="evenodd" opacity="1" stroke="none" />
        <path
            d="M141.493 71.1956L387.543 71.1956L170.765 4.04449C140.175-5.78677 107.253 11.0651 97.3748 41.6668L78.0855 101.517C93.0598 83.0444 115.906 71.1956 141.493 71.1956ZM59.8574 158.079L4.36852 330.26C-5.48606 360.862 11.3892 393.784 41.7926 403.581L59.8574 409.762L59.8574 158.079Z"
            fill="#0000bb" fill-rule="evenodd" opacity="1" stroke="none" />
    </g>
</svg>