<?xml version="1.0" encoding="UTF-8" standalone="no"?>
<!DOCTYPE svg PUBLIC "-//W3C//DTD SVG 1.1//EN" "http://www.w3.org/Graphics/SVG/1.1/DTD/svg11.dtd">

<svg height="100%" stroke-miterlimit="10"
    style="fill-rule:nonzero;clip-rule:evenodd;stroke-linecap:round;stroke-linejoin:round;" version="1.1"
    viewBox="0 0 512 512" width="100%" xmlns="http://www.w3.org/2000/svg">
    <clipPath id=" ArtboardFrame">
        <rect height="512" width="512" x="0" y="0" />
    </clipPath>
    <g clip-path="url(#ArtboardFrame)" id="Layer-1">
        <path class="logo"
            d="M139.631 93.8331C107.343 93.8331 81.0487 120.127 81.0487 152.415L81.0487 456.892C81.0487 489.18 107.343 515.434 139.631 515.434L455.832 515.434C488.12 515.434 514.374 489.18 514.374 456.892L514.374 152.415C514.374 120.127 488.12 93.8331 455.832 93.8331L139.631 93.8331ZM444.107 140.691C457.048 140.691 467.517 151.159 467.517 164.1C467.517 177.041 457.049 187.548 444.107 187.548C431.166 187.548 420.698 177.041 420.698 164.1C420.698 151.159 431.166 140.691 444.107 140.691ZM249.516 258.956C259.844 258.956 268.148 261.725 274.46 267.258C280.771 272.79 284.414 280.549 285.397 290.549L266.945 290.549C266.494 284.77 264.912 280.601 262.145 277.998C259.379 275.396 255.172 274.103 249.516 274.103C243.369 274.103 238.76 276.307 235.707 280.713C232.653 285.119 231.067 291.949 230.985 301.211L230.985 307.978C230.985 317.65 232.462 324.717 235.392 329.184C238.322 333.651 242.929 335.872 249.241 335.872C254.937 335.872 259.22 334.58 262.027 331.977C264.835 329.375 266.417 325.35 266.827 319.899L285.279 319.899C284.582 329.53 281.031 337.107 274.617 342.639C268.203 348.172 259.732 350.941 249.241 350.941C237.766 350.941 228.75 347.06 222.173 339.334C215.595 331.609 212.297 321.028 212.297 307.545L212.297 302.076C212.297 293.47 213.829 285.854 216.861 279.297C219.894 272.74 224.249 267.732 229.884 264.228C235.519 260.724 242.057 258.956 249.516 258.956ZM329.422 258.956C335.815 258.956 341.497 260.142 346.497 262.458C351.497 264.773 355.376 268.033 358.143 272.254C360.909 276.475 362.313 281.246 362.313 286.615L343.861 286.615C343.861 282.516 342.587 279.329 340.005 277.054C337.423 274.78 333.779 273.671 329.107 273.671C324.599 273.671 321.103 274.598 318.603 276.503C316.103 278.409 314.865 280.943 314.865 284.057C314.865 286.967 316.302 289.408 319.232 291.375C322.162 293.342 326.48 295.162 332.176 296.883C342.668 300.039 350.318 303.975 355.113 308.647C359.908 313.319 362.313 319.148 362.313 326.115C362.313 333.861 359.361 339.925 353.5 344.331C347.64 348.737 339.773 350.941 329.855 350.941C322.97 350.941 316.704 349.684 311.049 347.164C305.393 344.643 301.076 341.162 298.105 336.777C295.134 332.392 293.659 327.33 293.659 321.551L312.15 321.551C312.15 331.428 318.052 336.344 329.855 336.344C334.24 336.344 337.664 335.452 340.123 333.669C342.582 331.886 343.822 329.43 343.822 326.233C343.822 322.75 342.582 320.072 340.123 318.207C337.664 316.342 333.219 314.375 326.825 312.306C320.432 310.236 315.368 308.176 311.639 306.168C301.475 300.676 296.413 293.282 296.413 283.979C296.413 279.143 297.78 274.826 300.505 271.035C303.23 267.244 307.127 264.314 312.229 262.182C317.331 260.051 323.07 258.956 329.422 258.956ZM406.81 258.956C413.203 258.956 418.924 260.142 423.924 262.458C428.924 264.773 432.804 268.033 435.57 272.254C438.336 276.475 439.701 281.246 439.701 286.615L421.249 286.615C421.249 282.516 419.975 279.329 417.393 277.054C414.811 274.78 411.167 273.671 406.495 273.671C401.987 273.671 398.491 274.598 395.991 276.503C393.491 278.409 392.253 280.943 392.253 284.057C392.253 286.967 393.729 289.408 396.66 291.375C399.59 293.342 403.868 295.162 409.564 296.883C420.056 300.039 427.706 303.975 432.501 308.647C437.296 313.319 439.701 319.148 439.701 326.115C439.701 333.861 436.788 339.925 430.927 344.331C425.067 348.737 417.161 350.941 407.243 350.941C400.358 350.941 394.092 349.684 388.437 347.164C382.781 344.643 378.464 341.162 375.493 336.777C372.522 332.392 371.047 327.33 371.047 321.551L389.538 321.551C389.538 331.428 395.44 336.344 407.243 336.344C411.628 336.344 415.052 335.452 417.511 333.669C419.97 331.886 421.21 329.43 421.21 326.233C421.21 322.75 419.97 320.072 417.511 318.207C415.052 316.342 410.646 314.375 404.253 312.306C397.86 310.236 392.796 308.176 389.066 306.168C378.903 300.676 373.801 293.282 373.801 283.979C373.801 279.143 375.168 274.826 377.893 271.035C380.618 267.244 384.515 264.314 389.617 262.182C394.719 260.051 400.458 258.956 406.81 258.956ZM180.784 260.215L199.236 260.215L199.236 322.181C199.236 327.877 197.979 332.885 195.459 337.249C192.938 341.614 189.347 344.983 184.757 347.36C180.167 349.737 174.995 350.941 169.217 350.941C159.75 350.941 152.393 348.517 147.106 343.701C141.819 338.886 139.159 332.094 139.159 323.282L157.729 323.282C157.729 327.667 158.638 330.91 160.483 333C162.327 335.09 165.241 336.108 169.217 336.108C172.741 336.108 175.546 334.907 177.636 332.489C179.726 330.071 180.784 326.648 180.784 322.181L180.784 260.215Z"
            fill="white" opacity="1" stroke="none" />
        <path class="logo"
            d="M139.612 70.4177L386.698 70.4177L169.008 2.98393C138.289-6.88871 105.228 10.0341 95.3084 40.7646L75.9379 100.867C90.9752 82.3164 113.918 70.4177 139.612 70.4177ZM57.6331 157.667L1.91065 330.573C-7.98541 361.303 8.96086 394.364 39.4923 404.202L57.6331 410.409L57.6331 157.667Z"
            fill="white" opacity="1" stroke="none" />
    </g>
</svg>